<?xml version="1.0" standalone="no"?>
<!DOCTYPE svg PUBLIC "-//W3C//DTD SVG 20010904//EN"
 "http://www.w3.org/TR/2001/REC-SVG-20010904/DTD/svg10.dtd">
<svg version="1.0" xmlns="http://www.w3.org/2000/svg"
 width="1616.000000pt" height="1204.000000pt" viewBox="0 0 1616.000000 1204.000000"
 preserveAspectRatio="xMidYMid meet">

 <rect width="100%" height="100%" fill="#ffffff"/>

<g transform="translate(0.000000,1204.000000) scale(0.100000,-0.100000)"
fill="#0e8154" stroke="none">
<path d="M0 6020 l0 -6020 8080 0 8080 0 0 6020 0 6020 -8080 0 -8080 0 0
-6020z m8241 2451 c57 -16 217 -75 274 -101 44 -20 136 -54 245 -90 102 -34
142 -49 255 -95 17 -7 66 -25 110 -40 133 -45 418 -146 450 -160 17 -8 71 -27
120 -43 87 -29 209 -73 250 -91 54 -23 107 -43 185 -67 47 -14 132 -44 190
-66 396 -151 381 -144 428 -202 93 -114 111 -202 105 -501 -2 -77 -3 -145 -3
-152 0 -6 -39 -23 -87 -38 -125 -39 -362 -122 -428 -151 -50 -21 -232 -84
-244 -84 -6 0 -64 -21 -129 -46 -141 -55 -186 -71 -322 -116 -130 -44 -224
-77 -270 -94 -19 -7 -82 -29 -140 -50 -108 -37 -148 -52 -330 -121 -58 -22
-166 -60 -240 -85 -74 -25 -187 -65 -250 -88 -63 -23 -162 -55 -220 -71 -148
-42 -113 -50 -725 165 -172 61 -242 86 -270 97 -25 10 -152 55 -225 79 -52 18
-162 57 -380 136 -52 19 -133 47 -180 63 -47 16 -116 41 -155 56 -38 15 -151
55 -250 90 -99 34 -232 81 -295 105 -147 54 -409 140 -426 140 -11 0 -14 39
-16 178 -4 239 4 318 41 395 58 122 86 142 301 222 69 25 166 63 230 89 36 14
72 26 81 26 9 0 18 3 22 6 3 3 52 21 109 40 57 19 112 39 123 44 29 15 146 56
255 92 52 16 100 34 105 38 6 4 37 17 70 28 33 12 112 40 175 62 63 23 144 50
180 61 36 11 79 26 95 33 17 7 75 30 130 50 55 21 109 41 120 46 11 5 58 21
105 36 47 15 99 33 115 40 77 34 347 134 390 144 64 16 257 11 326 -9z m-2941
-1988 c36 -16 229 -86 335 -121 50 -17 128 -45 175 -62 47 -18 123 -46 170
-62 252 -88 317 -111 335 -119 40 -17 222 -81 284 -100 68 -20 185 -62 238
-85 17 -8 38 -14 46 -14 9 0 18 -4 21 -8 3 -5 33 -17 68 -27 35 -9 92 -28 128
-41 36 -12 112 -39 170 -59 116 -40 246 -90 272 -105 10 -6 23 -10 30 -10 27
0 300 -93 348 -119 8 -4 45 -14 82 -21 67 -13 147 -5 203 20 31 14 234 87 295
105 63 20 185 62 215 75 28 13 179 66 320 112 66 22 129 44 140 49 32 15 180
68 305 109 63 21 198 70 300 108 102 39 246 91 320 116 183 61 261 90 285 102
11 6 58 23 105 38 98 32 295 103 327 118 11 6 25 8 30 5 4 -3 8 -119 8 -259
l0 -253 -140 -46 c-200 -65 -355 -126 -394 -156 -39 -30 -70 -93 -71 -144 0
-54 43 -132 85 -152 37 -18 134 -23 150 -9 6 5 53 23 105 41 113 39 118 41
193 75 33 15 61 26 63 23 8 -8 11 -1021 4 -1307 -7 -289 -8 -296 -34 -361 -51
-126 -100 -163 -306 -232 -159 -54 -386 -134 -407 -145 -10 -5 -101 -37 -203
-72 -102 -34 -261 -90 -355 -125 -93 -35 -222 -80 -285 -100 -63 -20 -128 -43
-145 -50 -45 -20 -133 -52 -290 -105 -77 -26 -212 -73 -300 -105 -88 -31 -189
-66 -225 -77 -36 -10 -75 -24 -88 -29 -13 -5 -74 -9 -136 -9 -125 0 -155 8
-466 120 -80 28 -212 74 -295 101 -128 42 -277 97 -350 129 -11 5 -65 23 -120
40 -103 33 -224 74 -450 155 -71 25 -188 66 -260 90 -138 46 -393 136 -435
153 -14 5 -70 24 -125 42 -166 53 -216 93 -272 217 -23 52 -27 74 -32 215 -3
86 -5 447 -3 803 l2 647 28 -6 c23 -6 121 -43 197 -76 77 -32 184 -60 228 -60
54 1 100 30 125 80 36 71 24 170 -25 216 -28 26 -141 84 -164 84 -8 0 -19 4
-24 9 -11 9 -259 95 -322 111 -30 7 -43 16 -43 28 0 9 -1 128 -3 265 -2 136 0
246 3 244 3 -1 16 -8 30 -14z"/>
<path d="M7980 7951 c-14 -5 -68 -25 -120 -44 -52 -19 -153 -56 -225 -81 -71
-26 -159 -57 -195 -70 -36 -13 -141 -51 -235 -84 -93 -33 -208 -74 -255 -92
-47 -18 -157 -57 -245 -87 -88 -30 -203 -72 -255 -93 -103 -41 -183 -71 -330
-121 -52 -17 -119 -42 -149 -55 -29 -13 -60 -24 -67 -24 -8 0 -14 -4 -14 -10
0 -5 2 -10 4 -10 2 0 41 -14 87 -30 46 -17 158 -56 249 -87 91 -30 183 -65
205 -76 22 -11 51 -23 65 -28 14 -4 63 -22 110 -39 87 -32 154 -56 510 -179
113 -39 223 -80 245 -90 22 -10 51 -22 65 -25 14 -4 34 -11 45 -16 17 -8 66
-25 300 -105 94 -32 190 -69 201 -77 31 -23 109 -20 184 7 41 14 100 35 130
45 30 10 93 33 140 50 47 18 99 36 115 40 40 10 223 78 255 94 14 7 66 25 115
40 86 27 246 84 310 111 17 7 39 15 50 18 11 3 58 20 105 37 47 17 110 39 140
49 30 10 116 42 190 71 234 90 260 100 273 100 11 0 91 31 174 66 17 8 37 14
45 14 7 0 19 4 27 9 19 12 -47 43 -224 104 -156 54 -289 103 -330 121 -16 7
-129 48 -250 91 -121 42 -234 83 -252 91 -17 8 -36 14 -42 14 -6 0 -19 4 -29
10 -9 5 -89 34 -177 64 -274 94 -468 162 -520 184 -164 69 -252 95 -325 98
-41 2 -86 -1 -100 -5z"/>
<path d="M6293 5555 c-58 -25 -94 -117 -79 -200 10 -50 78 -118 141 -139 28
-10 57 -21 65 -25 8 -4 62 -22 120 -40 58 -18 123 -41 145 -51 22 -9 51 -21
65 -24 14 -4 34 -11 45 -16 55 -23 129 -40 178 -40 45 0 57 4 80 28 56 59 72
144 38 217 -26 59 -66 87 -172 124 -52 18 -116 42 -144 53 -84 35 -267 99
-323 114 -66 18 -118 17 -159 -1z"/>
<path d="M9705 5565 c-5 -2 -44 -13 -85 -26 -41 -12 -82 -26 -90 -31 -28 -15
-245 -95 -280 -103 -45 -10 -159 -61 -183 -83 -54 -47 -72 -154 -37 -221 47
-92 119 -104 286 -47 55 19 142 48 194 66 52 18 103 36 112 41 10 5 23 9 29 9
6 0 27 7 47 16 175 74 207 107 207 213 -1 78 -17 117 -64 148 -31 21 -100 30
-136 18z"/>
<path d="M7550 5127 c-56 -30 -71 -44 -90 -83 -24 -49 -25 -87 -5 -145 28 -77
38 -83 263 -163 37 -13 94 -31 127 -41 33 -9 71 -22 84 -28 32 -16 250 -16
282 0 13 7 53 21 89 32 172 53 297 102 322 126 69 66 69 202 0 269 -31 31 -43
36 -83 36 -27 0 -86 -13 -136 -30 -48 -17 -106 -37 -128 -45 -190 -64 -257
-62 -465 15 -203 75 -219 78 -260 57z"/>
</g>
</svg>
